/* XPM */
static char *_b6e41f4236147fcd341cf287da4d7afGQwLVydLFvKVfYjo[] = {
/* columns rows colors chars-per-pixel */
"32 32 13 1 ",
"  c None",
". c #62677A",
"X c #211F30",
"o c #ACF7FA",
"O c #6CD9F1",
"+ c #2FACDA",
"@ c #B96E54",
"# c #A14744",
"$ c #CF9E6E",
"% c #E4C997",
"& c white",
"* c #F2BC7E",
"= c #FBDFB1",
/* pixels */
"                                ",
"                                ",
"                                ",
"                                ",
"                                ",
"                                ",
"     .......XXXXXXXXXXX....     ",
"     .....XXooOOOOOOOooX...     ",
"     ....XoOOOOOOOOOOOOoX..     ",
"     ...XoOO+XXXXXXXXXXXX..     ",
"     ..XoOO+X@#$$$$%$%%$$X.     ",
"     ..XoO+X@#$$$$$$%$%%$$X     ",
"     .XOOO+X@#$$$$$$$%$%%$X     ",
"     .XXXXXX@#$$$$$$$$%$%%X     ",
"     X@$%$@X@#$$$$$$$$$%$%X     ",
"     XXXXXXX@#$$$$$$$$$$%$X     ",
"     .X++++X@#$$$$$$$$$$$%X     ",
"     .X+OO+X@#@$$$#####$$@X     ",
"     .X+OOO+X@#@@@@@@@@@@X.     ",
"     ..X+OOO+XXXXXXXXXXXX..     ",
"     ...X++OO+++++++++++X..     ",
"     ....XXOOOOO&&&&oOXX...     ",
"     ...XOOOOOOOOOOOOOOXX..     ",
"     ..XOOO+OOOOO&&oOOOX+X.     ",
"     .X*XX+XOOOOOOOOOOOXX*X     ",
"     .X==*XOOOOOOOoOOOOX**X     ",
"     ..XXX+OOOOOOOOOOOOXXX.     ",
"     ....X+OOOOOOOOOOOOX...     ",
"     ....X+OOXXXXXXXXOOX...     ",
"     ....X+O+X.....X+O+X...     ",
"     ....X++X......X++X....     ",
"     .....XX........XX.....     "
};
