/* XPM */
static char *bf733575fa3442f0bc541b052bddd15bcVrUIMQaXMUAo1hL[] = {
/* columns rows colors chars-per-pixel */
"32 32 17 1 ",
"  c #D8BD9B",
". c #62677A",
"X c #B96E54",
"o c #211F30",
"O c #6CD9F1",
"+ c #F89CC0",
"@ c #2FACDA",
"# c #EA71BD",
"$ c #A14744",
"% c #843346",
"& c #E4C997",
"* c #CF9E6E",
"= c #B96E54",
"- c #E68D41",
"; c #F2BC7E",
": c white",
"> c #FBDFB1",
/* pixels */
"                                ",
"      ......o...o...o...o.....  ",
"      .....oOo.o+o.oOo.o+o....  ",
"      ....o@OOo#++o@OOo#++o...  ",
"      ..ooo@OOo#++o@OOo#++ooo.  ",
"      .o++o@OOo#++o@OOo#++oOOo  ",
"      .o++#o@ooo#ooo@ooo#o@OOo  ",
"      ..o##ooooooooooooooo@@o.  ",
"      ...oo$%&&*o$%==*o*&&oo..  ",
"      ..o-o$%***o$%==*o***o...  ",
"      .o;-o=%%%*o$%===o*%%o...  ",
"      .o;-o=%::%o$%==*o%::o...  ",
"      o;;-o=%::%o$%===o%::o...  ",
"      o;;-o=%%%oo$%===oo%%o...  ",
"      o;;-o=%*o:o$%===o:o*o...  ",
"      o;;-o=%*o%o%%$$$o$o*o...  ",
"      o-;-o=%*o%%ooooo%$o*o...  ",
"      .o;-o$%*o:::%:::::o*o...  ",
"      .o--o$%=*ooooooooo*=o...  ",
"      ..o;-o$%===========o....  ",
"      ..o;;-ooooooooooooo.....  ",
"        o;;;-----------o        ",
"        o---o;;;;;>;>>;o        ",
"         ooo;;;;;;;;>>;o        ",
"         o;;;;;;;;;;;;;o        ",
"        o-;;;;;;;;;;;;;;o       ",
"        o-;;;oooooooo;;;o       ",
"        o----o.....Xo;;;o       ",
"      ...oooo...... .ooo...     ",
"                                ",
"                                ",
"                                "
};
