/* XPM */
static char *_486da88545a45a0fce912e4024cf130q5MENJL4W1yxgYMS[] = {
/* columns rows colors chars-per-pixel */
"32 32 188 2 ",
"   c #D8BD9B",
".  c #211F30",
"X  c #020228",
"o  c #333142",
"O  c #565562",
"+  c #454353",
"@  c #727076",
"#  c #565458",
"$  c #222032",
"%  c #1E1C2D",
"&  c #4D4E5C",
"*  c #4B4B5A",
"=  c #2D2C3E",
"-  c #242234",
";  c #272536",
":  c #2B282F",
">  c #201E30",
",  c #2E2C3E",
"<  c #363547",
"1  c #626470",
"2  c #363446",
"3  c #5F616D",
"4  c #302F3F",
"5  c #4C4637",
"6  c #434353",
"7  c #454554",
"8  c #60626E",
"9  c #3C3C4B",
"0  c #6B6131",
"q  c #68582D",
"w  c #66512A",
"e  c #64502A",
"r  c #1D1D31",
"t  c #8E6D25",
"y  c #040630",
"u  c #1D1E31",
"i  c #454031",
"p  c #482D27",
"a  c #000019",
"s  c #000002",
"d  c #5C563C",
"f  c #96917A",
"g  c #848285",
"h  c #2C2B3E",
"j  c #000029",
"k  c #8B803D",
"l  c #4F4D5B",
"z  c #000028",
"x  c #796F39",
"c  c #B5AA62",
"v  c #434044",
"b  c #1F1F30",
"n  c #5B4A2A",
"m  c #453E37",
"M  c #464757",
"N  c #3B3A4A",
"B  c #201E2F",
"V  c #0D091B",
"C  c #000010",
"Z  c #0E0A1C",
"A  c #1B1929",
"S  c #080517",
"D  c #373747",
"F  c #393848",
"G  c #282638",
"H  c #232132",
"J  c #0B0E31",
"K  c #6E5928",
"L  c #2B293C",
"P  c #60616F",
"I  c #8B8F98",
"U  c #5F616F",
"Y  c #343245",
"T  c #5E606E",
"R  c #9CA3AB",
"E  c #0D0D30",
"W  c #71632D",
"Q  c #2D2B3D",
"!  c #0C0D30",
"~  c #756930",
"^  c #464654",
"/  c #0B0B2B",
"(  c #797144",
")  c #0A0926",
"_  c #7C7655",
"`  c #2D2B3C",
"'  c #0B0A2A",
"]  c #7B7349",
"[  c #0B0B2C",
"{  c #796F3F",
"}  c #444453",
"|  c #746931",
" . c #423C31",
".. c #252438",
"X. c #363545",
"o. c #71747F",
"O. c #606270",
"+. c #5F606E",
"@. c #2D2B3E",
"#. c #383747",
"$. c #454553",
"%. c #2A2839",
"&. c #736831",
"*. c #524B31",
"=. c black",
"-. c #0E0B1C",
";. c #0E0B1D",
":. c #1A1828",
">. c #514A31",
",. c #746931",
"<. c #524A31",
"1. c #0D0F31",
"2. c #705E2D",
"3. c #50442E",
"4. c #0E1132",
"5. c #6E5729",
"6. c #4E402C",
"7. c #0D1032",
"8. c #6F5829",
"9. c #4F412C",
"0. c #0D1433",
"q. c #604928",
"w. c #41342C",
"e. c #000F38",
"r. c #503325",
"t. c #75652E",
"y. c #383431",
"u. c #37262A",
"i. c None",
"p. c #60542F",
"a. c #000032",
"s. c #FAEE89",
"d. c #DAD5A8",
"f. c #D0C159",
"g. c #7B7973",
"h. c #C2CBD0",
"j. c #80838E",
"k. c #7F838F",
"l. c #3C3A4E",
"z. c #7D7D75",
"x. c #C9D2D8",
"c. c #8C909B",
"v. c #3A394C",
"b. c #9195A1",
"n. c #E3ECEE",
"m. c #403E53",
"M. c #9296A2",
"N. c #C8D2D7",
"B. c #8C909C",
"V. c #4F4F61",
"C. c #45413C",
"Z. c #4F4F63",
"A. c #8C919C",
"S. c #9FA6B0",
"D. c #8F939F",
"F. c #9094A0",
"G. c #9296A1",
"H. c #626372",
"J. c #8B8F9A",
"K. c #B7BEC4",
"L. c #464342",
"P. c #4F4F62",
"I. c #8B8F9B",
"U. c #C9D3D7",
"Y. c #9195A0",
"T. c #3D3B50",
"R. c #E3EDEF",
"E. c #38374A",
"W. c #8D919C",
"Q. c #808381",
"!. c #C8D1D7",
"~. c #8A8E99",
"^. c #8C919D",
"/. c #4E4E60",
"(. c #474444",
"). c #515164",
"_. c #8D919D",
"`. c #626472",
"'. c #3D3938",
"]. c #3B394E",
"[. c #7D818E",
"{. c #C7D1D5",
"}. c #312F43",
"|. c #7F828E",
" X c #B0B7BD",
".X c #7E5722",
"XX c #C67D14",
"oX c #AC7E21",
/* pixels */
"                                                                ",
"                                                                ",
"                                                                ",
"                                                                ",
"                                                                ",
"                                                                ",
"                                                                ",
"                  . . . . .                                     ",
"                . X   a s o O                                   ",
"                .   d f g h +                                   ",
"                . j k s.d.l @                                   ",
"                . z x f.c v # $ . . . . % & * = - ;             ",
"                . : b n m M N B V C Z A S D F G H -             ",
"                  > J K g.h.j.L P I U Y T R k.l.G ,             ",
"                  . E W z.x.c.v.b.n.b.m.M.N.B.V.Q <             ",
"                  . ! ~ C.Z.A.S.D.F.F.F.G.H.J.K.^ 1             ",
"                  . / ( L.P.I.U.Y.T.F.R.F.E.W.K.^ 1             ",
"                  . ) _ Q.!.~.H.G.F.F.F.D.S.^./.` 2             ",
"                  . ) _ Q.!.c.E.F.R.F.T.Y.U.I./.` 2             ",
"                  . ' ] (.)._.S.D.F.F.F.G.`.c.K.^ 1             ",
"                  . [ { '.].[.{.M.m.b.n.G.}.|. X} 3             ",
"                  . ! |  ...X.o.O.Y U I +.@.#.$.%.4             ",
"                  . ! &.*.5 6 =.-.A Z C ;.:.7 8 4 9             ",
"                  . ! &.>.0 . . . . . . . . .                   ",
"                  . ! &.>.0                                     ",
"                  . ! ,.<.0                                     ",
"                  . 1.2.3.q                                     ",
"                  . 4.5.6.w                                     ",
"                  . 7.8.9.e .                                   ",
"                . r 0.q.w.t y                                   ",
"                u e.r..Xt.y.i .                                 ",
"                p u.i.XXoXp.a..                                 "
};
