/* XPM */
static char * exit_xpm[] = {
"32 32 182 2",
"  	c #D8BD9B",
". 	c #D7B999",
"+ 	c #D5B295",
"@ 	c #D5B195",
"# 	c #D4B194",
"$ 	c #D4B094",
"% 	c #D4B095",
"& 	c #CFAC91",
"* 	c #D2AE93",
"= 	c #BA9B82",
"- 	c #8F8B79",
"; 	c #9B8B88",
"> 	c #D0AD91",
", 	c #877A3F",
"' 	c #FFFF97",
") 	c #DADAB3",
"! 	c #9E8477",
"~ 	c #D3AF94",
"{ 	c #D5B196",
"] 	c #988160",
"^ 	c #DACB57",
"/ 	c #BAAD64",
"( 	c #BE9E87",
"_ 	c #CEAB91",
": 	c #534225",
"< 	c #735F52",
"[ 	c #A78B7B",
"} 	c #A08674",
"| 	c #CDAB90",
"1 	c #D0AD92",
"2 	c #B99A83",
"3 	c #9B8171",
"4 	c #997F6F",
"5 	c #BC9C85",
"6 	c #CFAC93",
"7 	c #775E2F",
"8 	c #79776F",
"9 	c #D0DBE3",
"0 	c #7E818C",
"a 	c #3A3038",
"b 	c #69656F",
"c 	c #8E9096",
"d 	c #66636D",
"e 	c #453C47",
"f 	c #635F68",
"g 	c #A2A9B0",
"h 	c #848894",
"i 	c #333045",
"j 	c #9E8472",
"k 	c #756431",
"l 	c #7E7F75",
"m 	c #E6F1F7",
"n 	c #92959F",
"o 	c #1C182F",
"p 	c #979BA7",
"q 	c #FFFFFF",
"r 	c #979BA6",
"s 	c #201D36",
"t 	c #9DA1AB",
"u 	c #EAF6F6",
"v 	c #8E909C",
"w 	c #424054",
"x 	c #9F8573",
"y 	c #D3B094",
"z 	c #807338",
"A 	c #413C36",
"B 	c #393953",
"C 	c #9195A0",
"D 	c #A8B0B9",
"E 	c #888B98",
"F 	c #9094A0",
"G 	c #8E929D",
"H 	c #8A8E9A",
"I 	c #989DA8",
"J 	c #515161",
"K 	c #8B8E98",
"L 	c #C8D0D4",
"M 	c #9F8474",
"N 	c #D5B296",
"O 	c #857A4B",
"P 	c #423F3D",
"Q 	c #3B3A53",
"R 	c #858996",
"S 	c #E9F6F7",
"T 	c #969AA4",
"U 	c #0F0B25",
"V 	c #90949F",
"W 	c #8F939F",
"X 	c #110E25",
"Y 	c #C7CFD3",
"Z 	c #817755",
"` 	c #808481",
" .	c #E2EEF3",
"..	c #848792",
"+.	c #515262",
"@.	c #9A9FA9",
"#.	c #8A8D9A",
"$.	c #AAB2BA",
"%.	c #9397A3",
"&.	c #3D3B50",
"*.	c #9E8473",
"=.	c #807654",
"-.	c #808381",
";.	c #E0EBF1",
">.	c #8F939D",
",.	c #120E25",
"'.	c #969AA5",
").	c #E9F5F6",
"!.	c #888B97",
"~.	c #3F3D51",
"{.	c #867C50",
"].	c #444140",
"^.	c #464357",
"/.	c #979BA4",
"(.	c #ABB3BC",
"_.	c #888C98",
":.	c #8D919C",
"<.	c #989CA7",
"[.	c #535262",
"}.	c #91939D",
"|.	c #CCD5D8",
"1.	c #A08574",
"2.	c #D0AE91",
"3.	c #857A47",
"4.	c #3E3A37",
"5.	c #2F2E48",
"6.	c #777A87",
"7.	c #E2EEF0",
"8.	c #9EA2AD",
"9.	c #201C35",
"0.	c #989CA8",
"a.	c #171329",
"b.	c #878993",
"c.	c #B9C0C5",
"d.	c #9F8473",
"e.	c #D2B596",
"f.	c #796C32",
"g.	c #7C6D58",
"h.	c #A48F7A",
"i.	c #A38F77",
"j.	c #948A83",
"k.	c #646471",
"l.	c #474047",
"m.	c #67646D",
"n.	c #909297",
"o.	c #5E5E6A",
"p.	c #7C6B60",
"q.	c #A58A77",
"r.	c #987F71",
"s.	c #D5BA99",
"t.	c #746931",
"u.	c #A59174",
"v.	c #D7BC9A",
"w.	c #D5BB99",
"x.	c #D2B897",
"y.	c #D3B897",
"z.	c #A49073",
"A.	c #D4BA99",
"B.	c #D6BB9A",
"C.	c #D5B798",
"D.	c #746831",
"E.	c #D6BC9A",
"F.	c #746A31",
"G.	c #715F2C",
"H.	c #A59073",
"I.	c #6E5528",
"J.	c #A48E73",
"K.	c #D3B998",
"L.	c #735B29",
"M.	c #A58F73",
"N.	c #D2B898",
"O.	c #5A4629",
"P.	c #9E8971",
"Q.	c #87725E",
"R.	c #7F5620",
"S.	c #746734",
"T.	c #BBA488",
"U.	c #BDA588",
"V.	c #6E3A1C",
"W.	c #DD8B17",
"X.	c #B5861F",
"Y.	c #8B7B60",
"                                                                ",
"                              . .                               ",
"                            . + + .                             ",
"                          . + @ @ + .                           ",
"                        . + @ @ @ @ + .                         ",
"                      . + @ @ @ @ @ @ + .                       ",
"                    . + @ @ @ @ @ @ @ @ + .                     ",
"                  . # @ $ % @ @ @ @ @ @ @ + .                   ",
"                . + @ & * @ @ @ @ @ @ @ @ @ + .                 ",
"              . # @ = - ; @ @ @ @ @ @ @ @ @ @ + .               ",
"            . + @ > , ' ) ! @ ~ @ @ @ % @ $ ~ ~ # .             ",
"          . + @ { @ ] ^ / ( @ $ @ @ @ @ @ @ @ @ @ + .           ",
"        . + @ @ % @ _ : < [ } | 1 & > & ~ 2 3 4 5 @ # .         ",
"      . + @ @ @ @ @ 6 7 8 9 0 a b c d e f g h i j @ ~ + .       ",
"    . + @ @ @ @ @ @ 6 k l m n o p q r s t u v w x @ y @ + .     ",
"  . + @ @ @ @ @ @ @ 1 z A B C D E F G H I J K L M @ y @ @ + .   ",
". N @ @ @ @ @ @ @ @ > O P Q R S T U V q W X T Y M @ y @ @ @ N . ",
"@ @ @ @ @ @ @ @ @ @ > Z `  ...+.@.G V F #.$.%.&.*.@ y @ @ @ @ @ ",
"@ @ @ @ @ @ @ @ @ @ > =.-.;.>.,.W q V U '.).!.~.*.@ y @ @ @ @ @ ",
"@ @ @ @ @ @ @ @ @ @ > {.].^./.(._.:.G G <.[.}.|.1.@ y @ @ @ @ @ ",
"@ @ @ @ @ @ @ @ @ @ 2.3.4.5.6.7.8.9.r q 0.a.b.c.d.@ y @ @ @ @ @ ",
"@ @ @ @ @ @ @ @ @ + e.f.g.h.i.j.k.l.m.n.o.p.q.r.5 @ $ @ @ @ @ @ ",
"@ @ @ @ @ @ @ @ + . s.t.u.  v.w.x.y.y.y.x.w.. + @ @ @ @ @ @ @ @ ",
"@ @ @ @ @ @ @ + .   s.t.z.  A.v.          v.B.C.# @ @ @ @ @ @ @ ",
"@ @ @ @ @ @ + .     s.D.u.  E.  v.      v.      . + @ @ @ @ @ @ ",
"@ @ @ @ @ + .       s.F.u.  E.                    . + @ @ @ @ @ ",
"@ @ @ @ + .         s.G.H.  B.                      . + @ @ @ @ ",
"@ @ @ + .           A.I.J.  B.                        . + @ @ @ ",
"@ @ + .             K.L.M.  B.                          . + @ @ ",
"@ + .               N.O.P.  B.                            . + @ ",
"N .                 Q.R.S.T.  v.                            . N ",
".             v.  U.V.W.X.Y.                                  . "};
