/* XPM */
static char *b2f8bbcccaad4e6997ed9ab392f9771aVs4JIcJA3Z3ivpGw[] = {
/* columns rows colors chars-per-pixel */
"64 64 161 2 ",
"   c #1F1C2F",
".  c #1D1E33",
"X  c #221E2E",
"o  c #221F32",
"O  c #281C34",
"+  c #1D222E",
"@  c #1D2133",
"#  c #23212E",
"$  c #2C242F",
"%  c #222133",
"&  c #2A2132",
"*  c #2B2833",
"=  c #202038",
"-  c #342233",
";  c #3A2433",
":  c #3F2A31",
">  c #43252F",
",  c #40292F",
"<  c #452635",
"1  c #412A34",
"2  c #482C34",
"3  c #532D3D",
"4  c #453334",
"5  c #4B3236",
"6  c #403836",
"7  c #4B3238",
"8  c #4D3E3B",
"9  c #503E3C",
"0  c #692E3E",
"q  c #66323F",
"w  c #6C303C",
"e  c #7F313F",
"r  c #7F3F3E",
"t  c #4F4039",
"y  c #52403E",
"u  c #463F42",
"i  c #523E40",
"p  c #6B2E40",
"a  c #653040",
"s  c #6B3243",
"d  c #6F3C43",
"f  c #7F3141",
"g  c #7E3E40",
"h  c #524245",
"j  c #524846",
"k  c #7F4144",
"l  c #82323F",
"z  c #913C3F",
"x  c #9E493E",
"c  c #A0473F",
"v  c #A1493F",
"b  c #832F46",
"n  c #843346",
"m  c #8A3645",
"M  c #823D40",
"N  c #8D3C45",
"B  c #843349",
"V  c #8E3E48",
"C  c #903544",
"Z  c #923C45",
"A  c #9A3E42",
"S  c #814142",
"D  c #884C41",
"F  c #8B4149",
"G  c #854D4C",
"H  c #914146",
"J  c #9D4543",
"K  c #9E4943",
"L  c #90414A",
"P  c #994248",
"I  c #9C4D4B",
"U  c #8F5547",
"Y  c #8E5949",
"T  c #945B47",
"R  c #90574C",
"E  c #9F534E",
"W  c #91594B",
"Q  c #9C4C51",
"!  c #9F5353",
"~  c #9D5058",
"^  c #A24645",
"/  c #A14844",
"(  c #A54949",
")  c #A35747",
"_  c #A85547",
"`  c #A65947",
"'  c #A2544C",
"]  c #AA564B",
"[  c #A65B49",
"{  c #AB5A4C",
"}  c #A05250",
"|  c #A65A5A",
" . c #826557",
".. c #996C57",
"X. c #9B6C5A",
"o. c #9F7E5D",
"O. c #B66C4E",
"+. c #B96C4F",
"@. c #AE6152",
"#. c #AF6258",
"$. c #B66C54",
"%. c #B96D53",
"&. c #B06359",
"*. c #B76859",
"=. c #B96C58",
"-. c #A17C5E",
";. c #B57154",
":. c #BA7156",
">. c #B77158",
",. c #BB745A",
"<. c #BC7B5B",
"1. c #9F7C60",
"2. c #A17E60",
"3. c #BE7D61",
"4. c #C07F5F",
"5. c #C27E61",
"6. c #8C8074",
"7. c #A58066",
"8. c #A78468",
"9. c #A78C77",
"0. c #C28161",
"q. c #C58A65",
"w. c #C98C65",
"e. c #C58C69",
"r. c #CA8C6B",
"t. c #C69167",
"y. c #C6926A",
"u. c #CA956D",
"i. c #CE9E6E",
"p. c #D09D6E",
"a. c #C69471",
"s. c #CB9571",
"d. c #CE9B71",
"f. c #D29E71",
"g. c #CEA06F",
"h. c #D2A06F",
"j. c #C0A175",
"k. c #CFA271",
"l. c #CFAA7D",
"z. c #D2A374",
"x. c #D5A877",
"c. c #D7A37B",
"v. c #D6A77B",
"b. c #D3A37A",
"n. c #D9A679",
"m. c #D7A978",
"M. c #D3AA7C",
"N. c #D4AA7C",
"B. c #DBAB7B",
"V. c #D8B07D",
"C. c #AF9981",
"Z. c #D6AA80",
"A. c #D7AE82",
"S. c #D7AC82",
"D. c #D8AB81",
"F. c #D2B182",
"G. c #DAB485",
"H. c #DFB688",
"J. c #DDB588",
"K. c #DEB889",
"L. c #E1B88A",
/* pixels */
"O o + + o O   + o o o o o o o o o o o o o o o o o o o o o o o o o o o o o o o o o o o o o o o o % % % % o o o o o @ @ + # X % @ ",
"O $ 6 8 8 i y t 8 8 8 8 8 8 8 8 8 8 8 8 8 8 8 8 8 8 8 8 8 8 8 8 8 8 8 8 8 8 8 8 8 8 8 8 8 8 8 8 8 8 8 8 9 9 9 9 9 y 8 8 j u * X ",
"# 4  .7.2.1.2.-.2.2.2.-.-.-.-.-.2.2.2.2.2.2.2.2.2.2.2.2.2.2.2.2.2.2.2.2.2.2.2.2.2.2.2.2.2.2.2.2.-.2.2.2.2.2.2.2.o.-.-.8.C.6.u O ",
"@ 8 X.r.u.d.k.p.g.g.i.i.i.i.i.i.g.g.g.g.g.g.g.g.g.g.g.g.g.g.g.g.g.g.g.g.g.g.g.g.g.g.g.g.g.g.g.g.i.i.g.g.i.i.i.i.k.z.n.v.A.9.h o ",
". 2 D O.w.g.i.i.i.i.i.i.i.i.i.i.i.i.i.i.i.i.i.i.i.i.i.i.i.i.i.i.i.i.i.i.i.i.i.i.i.i.i.i.i.i.i.i.p.p.p.p.i.i.i.p.i.k.G.B.u...4 % ",
". < r ` ,.e.y.g.i.i.i.i.i.i.i.i.i.i.i.i.i.i.i.i.i.i.i.i.i.i.i.i.i.i.i.i.i.i.i.i.i.i.i.i.i.i.i.i.i.i.i.i.i.i.i.z.z.l.G.c.0.T 5 @ ",
"% 2 r K _ $.e.z.i.i.i.i.i.i.i.i.i.i.i.i.i.i.i.i.i.i.i.i.i.i.i.i.i.i.i.i.i.i.i.i.i.i.i.i.i.i.i.i.i.i.i.i.i.i.z.z.J.Z.a.4.:.U 5 @ ",
"X > k ( ^ ] ,.q.i.i.i.i.i.i.i.i.i.i.i.i.i.i.i.i.i.i.i.i.i.i.i.i.i.i.i.i.i.i.i.i.i.i.i.i.i.i.i.i.p.p.p.i.i.z.n.m.V.c.3.%.:.Y 5 o ",
"% 1 g ( / / { $.t.i.z.i.i.i.i.p.i.i.i.i.i.i.i.i.i.i.i.i.i.i.i.i.i.i.i.i.i.i.i.i.g.g.i.i.i.i.i.i.p.p.i.k.p.n.J.F.r.5.,.$.%.T 4 % ",
"o 1 M ( / K / ` <.q.u.p.i.g.i.i.i.i.i.i.i.i.i.i.i.i.i.i.i.i.i.i.i.i.i.i.i.i.i.i.i.i.i.i.i.i.i.i.p.z.i.i.z.N.Z.v.4.,.$.O.$.T 4 o ",
"o : r ( ( / ^ x ` >.r.p.i.i.i.i.i.i.i.i.i.i.i.i.i.i.i.i.i.i.i.i.i.i.i.i.i.i.i.i.i.i.i.i.i.i.i.i.i.i.p.z.K.G.y.4.:.%.$.$.%.T 4 % ",
"X 1 g ^ / ( ( K J { ,.w.i.i.i.i.i.i.i.i.i.i.i.i.i.i.i.i.i.i.i.i.i.i.i.i.i.i.i.i.i.i.i.i.i.i.i.i.k.g.z.M.A.b.<.%.%.$.%.%.%.W 4 % ",
"o 1 S ^ J ^ ^ J ( ( ` $.w.f.f.i.i.i.i.i.i.i.i.i.i.i.i.i.i.i.i.i.i.i.i.i.i.i.i.i.i.i.i.i.i.i.i.i.p.k.G.A.u.0.:.:.%.$.%.%.%.T 4 o ",
"o 1 S ( / ( ^ J ( ^ / ] ,.r.d.p.i.i.i.i.i.i.i.i.i.i.i.i.i.i.i.i.i.i.i.i.i.i.i.i.i.i.i.i.i.i.g.k.n.N.G.b.0.%.%.%.%.%.%.%.%.T 4 o ",
"o 1 g ( / ( ( ( / ( ( ( { $.q.p.i.i.i.i.i.i.i.i.i.i.i.i.i.i.i.i.i.i.i.i.i.i.i.i.i.i.i.i.i.g.z.z.L.Z.u.<.%.$.%.%.%.%.:.$.%.W 4 o ",
"O 1 g ^ / J ^ / x / ( ^ ( [ <.t.i.i.i.i.i.i.i.i.i.i.i.i.i.i.i.i.i.i.i.i.i.i.i.i.i.i.i.i.i.k.z.x.F.b.4.%.:.%.%.+.;.%.$.$.%.T 4 o ",
"o 1 M ( / K ^ / ( ^ ^ ( / K { *.t.i.z.i.i.i.i.p.i.i.i.i.i.i.i.i.g.g.i.i.i.i.i.i.p.p.i.k.p.n.J.F.r.5.:.%.%.%.%.%.%.%.%.%.$.T 5 o ",
"o 1 M ( / K ^ / ( ^ ( ( J x / _ <.q.u.p.i.g.i.i.i.i.i.i.i.i.i.i.i.i.i.i.i.i.i.i.p.z.i.i.z.N.Z.v.5.,.$.$.%.%.%.%.%.%.%.%.$.T 5 o ",
"o 1 M ( / K ^ / / J ^ ( / K / K ` >.r.p.i.i.i.i.i.i.i.i.i.i.i.i.i.i.i.i.i.i.i.i.i.i.p.z.K.G.y.4.:.%.$.%.%.%.%.%.%.%.%.%.%.T 5 o ",
"o 1 M ( / K ^ / K K J ^ / ( ( ( J { ,.w.i.i.i.i.i.i.i.i.i.i.i.i.i.i.i.i.i.i.i.i.k.g.z.M.A.b.<.%.%.%.%.%.%.%.%.%.%.%.%.%.$.T 5 o ",
"o 1 M ( / K ( ( K / / J J ^ ^ ^ ( ( ` $.w.f.f.i.i.i.i.i.i.i.i.i.i.i.i.i.i.i.i.i.p.k.G.A.u.0.:.:.%.%.%.%.%.%.%.%.%.%.%.%.%.T 5 o ",
"o 1 M ( / K ( ( J / ( / K J ^ ^ ( ^ / ] ,.r.d.p.i.i.i.i.i.i.i.i.i.i.i.i.i.i.g.k.n.N.G.b.0.%.%.%.%.%.%.%.%.%.%.%.%.%.%.%.%.T 5 o ",
"o 1 M ( / K ( / ^ ^ / / / ( ( ( / ( ( ( { $.q.p.i.i.i.i.i.i.i.i.i.i.i.i.i.g.z.z.L.Z.u.<.%.$.%.%.%.%.%.%.%.%.%.%.%.%.%.%.$.T 5 . ",
"o 1 M ( / K ^ / ( ^ J J K J J ( x / ( ^ ( [ <.t.i.i.i.i.i.i.i.i.i.i.i.i.i.k.z.x.F.b.4.%.:.%.%.+.%.%.$.$.%.%.%.%.%.%.%.%.$.T 5 . ",
"o 1 M ( / K ( ( / / / / / / / / ( ^ ^ ( / K { *.q.d.z.d.i.i.i.f.f.f.i.i.i.n.J.F.r.5.:.%.%.%.%.%.%.%.%.%.%.%.%.%.%.%.%.%.%.T 5 o ",
"o 1 M ( / K ( ( / / ^ ^ / / / / ( ^ ( ( ^ x / _ <.w.u.i.i.i.i.i.f.z.i.g.z.N.D.v.5.,.$.$.%.%.%.%.%.%.%.%.%.%.%.%.%.%.%.%.%.T 5 o ",
"o 1 M ( / K ^ ^ / / ( ( / ( ( / / J ^ ( / K / K ` >.w.i.i.i.i.z.i.i.p.z.J.G.y.4.:.%.$.%.%.%.%.%.%.%.%.%.%.%.%.%.%.%.%.%.%.T 5 o ",
"o 1 M ( / K ^ ^ / ( ( ( ( ( ( ( K K J ^ / ( ( ( J { ,.w.i.i.i.i.g.g.x.N.G.b.<.%.%.%.%.%.%.%.%.%.%.%.%.%.%.%.%.%.%.%.%.%.%.T 5 o ",
"o 1 l ( / K ^ K / / / ( ( ( / / K / / J J ^ J ^ ( ( ` ;.w.p.i.i.h.z.G.A.u.0.:.%.%.%.%.%.%.%.%.%.%.%.%.%.%.%.%.%.%.%.%.%.%.T 5 . ",
"o 1 l ( / K ^ / / / ( ( ( ( / / J / ( / / ^ ^ ^ ( ^ x ] ,.r.d.c.n.N.G.b.4.%.$.$.%.%.%.%.%.%.%.%.%.%.%.%.%.%.%.%.%.$.%.%.%.T 5 . ",
"o 1 l ( / K ( ( / / / / ( ( ( / ^ ^ / / / ( ( ( ( ^ ^ ( { $.e.c.J.Z.s.0.,.=.:.:.%.%.%.%.%.%.%.%.%.%.%.%.%.%.%.%.%.$.%.%.%.T 5 . ",
"% 1 l ( / K ( ( / / / / / / / / ( ^ J J K J ^ ( K ( ( ^ ( ) ;.e.j.s.<.%.%.$.%.%.%.%.$.$.%.%.%.%.%.%.%.%.%.%.%.%.%.%.%.%.%.T 5 o ",
"% 1 l ( K K ^ K / / / / / / / ( x J / / ^ / ( / ^ ^ / c / K Q Q ~ | &.%.O.O.%.%.%.%.%.%.%.%.%.%.%.%.%.%.%.%.%.%.%.%.%.%.%.T 5 o ",
"% 1 M ( / K ^ / ( ( / / / / ( ( / / / / ^ / ( / ^ ( ( J J N N N n L E @.$.%.%.%.%.%.%.%.%.%.%.%.%.%.%.%.%.%.%.%.%.%.%.%.%.T 5 o ",
"o 1 M ( / K ^ ( ( ( / / / ( ( ( ( ( / / / / / / c / ^ P Z n l e f n N I @.=.%.O.%.%.%.%.%.%.%.%.%.%.%.%.%.%.%.%.%.%.%.%.%.T 5 . ",
"o 1 M ( / K ^ ( / / / / / ( ( ( ( ( / / / ( ( / c J P Z m B n n B n n V } @.$.%.%.%.%.%.%.%.%.%.%.%.%.%.%.%.%.%.%.%.%.%.%.T 5 . ",
"o 1 M ( / K ( / / / / / / / ^ ^ ^ ^ / / ( ( ( / / J Z m B B B n n B B n N I @.>.%.%.%.%.%.%.%.%.%.%.%.%.%.%.%.%.%.%.%.%.%.T 5 o ",
"o 1 M ( / K ( ( / / / / / / ^ ^ / / ( ( ( ( ^ J J Z m n B B n n n B B B n N E #.$.%.%.%.%.%.%.%.%.%.%.%.%.%.%.%.%.%.%.%.%.T 5 o ",
"o 1 M ( / K ( / / / / / ( / / / / / / ^ ( ^ J J N m n n B B n n n n n B B m H I @.$.%.%.%.%.%.%.%.%.%.%.%.%.%.%.%.%.%.%.%.T 5 o ",
"o 1 M ( / K ^ ^ / / ( ( ( / / / / / / ^ ^ J J A m n n n n n n n n n n B n n n V ` @.$.%.%.%.%.%.%.%.%.%.%.%.%.%.%.%.%.%.%.T 5 o ",
"o 1 M ( / K ^ / x ^ / / ^ / / / ( ^ / / ( P N m n n n n n n n n n n n n n n n n N Q &.%.%.O.%.%.%.%.%.%.%.%.%.%.%.%.%.%.%.T 5 . ",
"o 1 M ( / K ^ ( / / / / ^ / / / ^ ( ( J J Z m n n n n n n n n n n n n n n n n n n H ' @.$.%.%.%.%.%.%.%.%.%.%.%.%.$.%.%.%.T 5 . ",
"o 1 l ( K K ^ / ( ( ( / ( ( / / / ( J P Z m n n n n n n n n n n n n n n n n n n n n N I @.=.%.%.%.%.%.%.%.%.%.%.%.%.%.%.%.T 5 . ",
"o 1 l ( K K ( ( ( ( ( ( ( ( ( / / J P Z m n n n n n n n n n n n n n n n n n n n B n n L ' @.$.%.%.%.%.%.%.%.%.%.%.%.%.%.%.T 5 . ",
"o 1 M ( / K ( ( ^ ^ ( ( ( ( ( / J P Z m n n n n n n n n n n n n n n n n n n n n B B n n V I @.%.%.%.%.%.%.%.%.%.%.%.%.%.%.T 5 . ",
"% 1 M ( / K ( / / ^ ( / ( ( J J P Z m n n B n n n n n n n n n n n n n n n n n n n B B n n N ' &.$.%.%.%.%.%.%.%.%.%.%.%.%.T 5 o ",
"o 1 M ( K K ^ / / / / / ( J J J N m n n n n n n n n n n n n n n n n n n n n n n n n B B n n H Q @.$.%.%.%.%.%.%.%.%.%.%.%.T 5 o ",
"o 1 M ( K K ^ / / / / / / J J A n n n n n n n b n n n n n n n n n n n n n n n n n n n B B n n V ` @.$.%.%.%.%.%.%.%.%.%.%.T 5 o ",
"X , g ^ ( ^ ( K ( ^ / / ( P N m n n n n n n n n n n n n n n n n n n n n n n n n n n n n n n n n N Q &.%.%.O.%.%.%.%.%.%.%.R 5 % ",
"X 1 g ^ ^ ( ^ K ^ ( ( J J Z m n n n n n n n n n n n n n n n n n n n n n n n n n n n n n n n n n n H ' @.$.%.%.%.%.%.%.%.%.W 5 % ",
"o 1 g ^ ^ / ^ K / ( J P Z m n n n n n n n n n n n n n n n n n n n n n n n n n n n n n n n n n n n n N I @.=.%.%.%.%.%.+.%.W 7 o ",
"o 1 g ^ / ( ( K / J P Z m n n n n n n n n n n n n n n n n n n n n n n n n n n n n n n n n n n n B n n L ' @.$.%.%.%.%.O.%.W 5 % ",
"o 1 g ^ / ( ^ K J P Z m n n n n n n n n n n n n n n n n n n n n n n n n n n n n n n n n n n n n B B n n V I @.%.%.%.%.O.%.T 5 % ",
"o 1 g ^ / ( ^ J P Z m n n B n n n n n n n n n n n n n n n n n n n n n n n n n n n n n n n n n n n B B n n N ' &.$.=.%.%.%.T 5 o ",
"o 1 r ^ / ^ ^ J N m n n n n n n n n n n n n n n n n n n n n n n n n n n n n n n n n n n n n n n n n B B n n H Q @.$.%.%.%.W 5 o ",
"o 1 r ^ ^ J A H n n n n n n n b n n n n n n n n n n n n n n n n n n n n n n n n n n n n n n n n n n n B B n n V ` @.$.%.%.W 5 % ",
"@ < M ^ ( J N m n n n n n n n n n n n n n n n n n n n n n n n n n n n n n n n n n n n n n n n n n n n n n n n n z I &.%.%.T 5 = ",
"+ < M J J N n n n n n n n n n n n n n n n n n n n n n n n n n n n n n n n n n n n n n n n n n n n n n n n n n n n F ! { $.T 2 . ",
"+ 2 M P Z m B B n n n n n n n n n n n n n n n n n n n n n n n n n n n n n n n n n n n n n n n n n n n n n n n n n B L ( @.W 5 % ",
"X < g Z C n n B n n n n n n n n n n n n n n n n n n n n n n n n n n n n n n n n n n n n n n n n n n n n n n n n n n n Z } G 2 o ",
"o ; s n n n n n n n n n n n n n n n n n n n n n n n n n n n n n n n n n n n n n n n n n n n n n n n n n n n n n B B n n F d ; o ",
"% - 3 a p s 0 w p p p p p p p p p p p p p p p p p p p p p p p p p p p p p p p p p p p p p p p p p p p p p p p p 0 p 0 0 q 3 - % ",
"o X - ; ; ; ; ; ; ; ; ; ; ; ; ; ; ; ; ; ; ; ; ; ; ; ; ; ; ; ; ; ; ; ; ; ; ; ; ; ; ; ; ; ; ; ; ; ; ; ; ; ; ; ; ; ; ; ; ; ; - & o ",
"% X # # . @ . % o o o o o o o o o o o o o o o o o o o o o o o o o o o o o o o o o o o o o o o o o o o o o o o o @ . o % X X % X "
};
