/* XPM */
static char *_fb8278e532b41b7c0f1ac8581f28922pKtmLE78GRWJzXpa[] = {
/* columns rows colors chars-per-pixel */
"32 32 17 1 ",
"  c #211F30",
". c #843346",
"X c #A14744",
"o c #B96E54",
"O c #E68D41",
"+ c #CF9E6E",
"@ c #F2BC7E",
"# c #EA71BD",
"$ c #2FACDA",
"% c #6CD9F1",
"& c #D5B195",
"* c #D7B999",
"= c #D8BD9B",
"- c #E4C997",
"; c #FBDFB1",
": c #F89CC0",
"> c white",
/* pixels */
"================================",
"============ ==* === === =======",
"=========== % * : = % = : ======",
"========== $%% #:: $%% #:: =====",
"========   $%% #:: $%% #::   ===",
"======= :: $%% #:: $%% #:: %% ==",
"======= ::# $   #   $   # $%% ==",
"======== ##               $$ ===",
"========*  X.--+ X.oo+ +--  ====",
"=======* O X.+++ X.oo+ +++ =====",
"======* @O o...+ X.ooo +.. =====",
"=====*& @O o.>>. X.oo+ .>> =====",
"====*& @@O o.>>. X.ooo .>> *====",
"===*&& @@O o...  X.ooo  .. &*===",
"==*&&& @@O o.+ > X.ooo > + &&*==",
"=*&&&& @@O o.+ . ..XXX X + &&&*=",
"*&&&&& O@O o.+ ..     .X + &&&&*",
"&&&&&&& @O X.+ >>>.>>>>> + &&&&&",
"&&&&&&& OO X.o+         +o &&&&&",
"&&&&&&&& @O X.ooooooooooo &&&&&&",
"&&&&&&&& @@O             &&&&&&&",
"&&&&&&&& @@@OOOOOOOOOOO &&&&&&&&",
"&&&&&&&& OOO @@@@@;@;;@ &&&&&&&&",
"&&&&&&&&*   @@@@@@@@;;@ &&&&&&&&",
"&&&&&&&*= @@@@@@@@@@@@@ *&&&&&&&",
"&&&&&&*= O@@@@@@@@@@@@@@ *&&&&&&",
"&&&&&*== O@@@        @@@ =*&&&&&",
"&&&&*=== OOOO ====== @@@ ==*&&&&",
"&&&*=====    ========   ====*&&&",
"&&*==========================*&&",
"&*============================*&",
"*==============================*"
};
