/* XPM */
static char *result[] = {
/* columns rows colors chars-per-pixel */
"32 32 8 1 ",
"  c #211F30",
". c #CC3048",
"X c #E44A4A",
"o c #28860F",
"O c #72A11D",
"+ c #F18B72",
"@ c #A4CC42",
"# c None",
/* pixels */
"################################",
"################################",
"################################",
"################################",
"################################",
"################################",
"################################",
"################################",
"###########    #################",
"########### @OO ################",
"#########     oO ###############",
"######## @Oooo o ###############",
"########    oooo      ##########",
"######### .X  X .XXXX. #########",
"######## X++XX+XXXXXXX. ########",
"######## X++XXXXXXXX.X. ########",
"######## .XXXXXXXXXXXX. ########",
"######### .XXXXXXXXXX. #########",
"########## .......... ##########",
"###########          ###########",
"################################",
"################################",
"################################",
"################################",
"################################",
"################################",
"################################",
"################################",
"################################",
"################################",
"################################",
"################################"
};
