/* XPM */
static char *_2cf6c3854314716aae0c0d4a824a119HXszrbIhoYE4UXZE[] = {
/* columns rows colors chars-per-pixel */
"32 32 37 1 ",
"  c #211F30",
". c #222030",
"X c #292534",
"o c #332D3A",
"O c #423B43",
"+ c #453C44",
"@ c #54484C",
"# c #584B4E",
"$ c #594C4F",
"% c #645555",
"& c #776560",
"* c #CC3048",
"= c #806C65",
"- c #8A746B",
"; c #E34A4A",
": c #28860F",
"> c #72A11D",
", c #9B8676",
"< c #9D8476",
"1 c #9D8A78",
"2 c #A18778",
"3 c #A98E7C",
"4 c #AC8F7E",
"5 c #F08B72",
"6 c #A4CB42",
"7 c #B19380",
"8 c #B49682",
"9 c #B09A83",
"0 c #B69F87",
"q c #B7A188",
"w c #CAAB92",
"e c #CFAD93",
"r c #D3AF94",
"t c #D3B094",
"y c #D5B295",
"u c #D7B999",
"i c #D8BD9B",
/* pixels */
"iiiiiiiiiiiiiiiiiiiiiiiiiiiiiiii",
"iiiiiiiiiiiiiiiuuiiiiiiiiiiiiiii",
"iiiiiiiiiiiiiiuyyuiiiiiiiiiiiiii",
"iiiiiiiiiiiiiuyyyyuiiiiiiiiiiiii",
"iiiiiiiiiiiiuyyyyyyuiiiiiiiiiiii",
"iiiiiiiiiiiuyyyyyyyyuiiiiiiiiiii",
"iiiiiiiiiiuyyrryyyyyyuiiiiiiiiii",
"iiiiiiiiiuyyy  wyyyyyyuiiiiiiiii",
"iiiiiiiiuyyrt 6 eyyyyyyuiiiiiiii",
"iiiiiiiuyye ..:> yyyyyyyuiiiiiii",
"iiiiiiuyyyX6>: : yyyyyyyyuiiiiii",
"iiiiiuyyyy<+.:::  ..yyyyyyuiiiii",
"iiiiuyyyyyy&* ; *;;* yyyyyyuiiii",
"iiiuyyyyyy2;;;;;;;;;*#yyyyyyuiii",
"iiuyyyyyyy-;55;5;;;;*$yyyyyyyuii",
"iuyyyyyyyy=;55;;;;*;*%yyyyyyyyui",
"uyyyyyyyyy4*;;;;;;;;*3yyyyyyyyyu",
"yyyyyyyyyyy@*;;;;;;*oyyyyyyyyyyy",
"yyyyyyyyyyy7********8yyyyyyyyyyy",
"yyyyyyyyyyyy,******Oyyyyyyyyyyyy",
"yyyyyyyyyyyui090q1,iuyyyyyyyyyyy",
"yyyyyyyyyyuiiiiiiiiiiuyyyyyyyyyy",
"yyyyyyyyyuiiiiiiiiiiiiuyyyyyyyyy",
"yyyyyyyyuiiiiiiiiiiiiiiuyyyyyyyy",
"yyyyyyyuiiiiiiiiiiiiiiiiuyyyyyyy",
"yyyyyyuiiiiiiiiiiiiiiiiiiuyyyyyy",
"yyyyyuiiiiiiiiiiiiiiiiiiiiuyyyyy",
"yyyyuiiiiiiiiiiiiiiiiiiiiiiuyyyy",
"yyyuiiiiiiiiiiiiiiiiiiiiiiiiuyyy",
"yyuiiiiiiiiiiiiiiiiiiiiiiiiiiuyy",
"yuiiiiiiiiiiiiiiiiiiiiiiiiiiiiuy",
"uiiiiiiiiiiiiiiiiiiiiiiiiiiiiiiu"
};
